# Blender v2.92.0 OBJ File: ''
# www.blender.org
mtllib d10.mtl
o d10_Solid.006
v 0.616783 0.513553 -0.577350
v 0.616783 0.513553 0.577350
v 0.601777 -0.973704 0.000000
v -0.616781 -0.513552 -0.577350
v -0.601777 0.973704 0.000000
v -0.616781 -0.513552 0.577350
v 0.317392 0.063799 -0.934172
v -0.317389 -0.063797 -0.934172
v 0.317392 0.063799 0.934172
v -0.317389 -0.063797 0.934172
v 0.894742 0.420621 0.000000
v -0.894740 -0.420619 0.000000
vt 0.251246 0.454545
vt 0.251247 0.636364
vt 0.205097 0.545455
vt 0.205101 0.909091
vt 0.205099 0.727273
vt 0.251249 0.818182
vt 0.205098 0.363636
vt 0.251249 1.000000
vt 0.456347 0.909091
vt 0.251248 0.272727
vt 0.205100 0.181818
vt 0.000001 0.272725
vt 0.000001 0.636365
vt 0.251250 0.090909
vt 0.456347 0.181821
vt 0.205102 0.000000
vt 0.456345 0.545453
vt 0.000002 0.818183
vt 0.000000 0.454545
vt 0.456346 0.727271
vt 0.456345 0.363638
vt 0.000003 0.090908
vn -0.8653 0.2177 -0.4516
vn 0.8653 -0.2177 -0.4516
vn -0.3171 -0.9484 0.0000
vn 0.3533 0.9355 0.0000
vn -0.1345 0.6693 -0.7307
vn -0.8653 0.2177 0.4516
vn 0.1125 -0.6477 0.7536
vn 0.1125 -0.6477 -0.7536
vn -0.1125 0.6477 0.7536
vn 0.8653 -0.2177 0.4516
vn -0.8660 0.1820 -0.4657
vn 0.8660 -0.1820 -0.4657
vn -0.3533 -0.9355 0.0000
vn 0.3171 0.9484 0.0000
vn -0.1125 0.6477 -0.7536
vn -0.8660 0.1820 0.4657
vn 0.1345 -0.6693 0.7307
vn 0.1345 -0.6693 -0.7307
vn -0.1345 0.6693 0.7307
vn 0.8660 -0.1820 0.4657
usemtl None
s off
f 12/1/1 8/2/1 4/3/1
f 11/4/2 7/5/2 1/6/2
f 4/3/3 6/7/3 12/1/3
f 2/8/4 1/6/4 5/9/4
f 8/2/5 1/6/5 7/5/5
f 10/10/6 12/1/6 6/7/6
f 9/11/7 6/7/7 3/12/7
f 4/3/8 7/5/8 3/13/8
f 10/10/9 2/14/9 5/15/9
f 9/11/10 11/16/10 2/14/10
f 12/1/11 5/17/11 8/2/11
f 11/4/12 3/18/12 7/5/12
f 4/3/13 3/19/13 6/7/13
f 2/8/14 11/4/14 1/6/14
f 8/2/15 5/20/15 1/6/15
f 10/10/16 5/21/16 12/1/16
f 9/11/17 10/10/17 6/7/17
f 4/3/18 8/2/18 7/5/18
f 10/10/19 9/11/19 2/14/19
f 9/11/20 3/22/20 11/16/20
