# Blender v2.92.0 OBJ File: ''
# www.blender.org
mtllib d12.mtl
o d12_Solid.003
v 0.577350 0.577350 -0.577350
v 0.577350 -0.577350 -0.577350
v 0.577350 0.577350 0.577350
v 0.577350 -0.577350 0.577350
v -0.577350 0.577350 -0.577350
v -0.577350 -0.577350 -0.577350
v -0.577350 0.577350 0.577350
v -0.577350 -0.577350 0.577350
v 0.356822 0.000000 -0.934172
v -0.356822 0.000000 -0.934172
v 0.356822 0.000000 0.934172
v -0.356822 0.000000 0.934172
v 0.934172 0.356822 0.000000
v 0.934172 -0.356822 0.000000
v -0.934172 0.356822 0.000000
v -0.934172 -0.356822 0.000000
v 0.000000 0.934172 -0.356822
v 0.000000 0.934172 0.356822
v 0.000000 -0.934172 -0.356822
v 0.000000 -0.934172 0.356822
vt 0.188555 0.679260
vt 0.188555 0.481075
vt 0.305046 0.518925
vt 0.377040 0.740502
vt 0.493530 0.900837
vt 0.377040 0.938687
vt 0.421536 0.160405
vt 0.421536 0.358590
vt 0.305046 0.320740
vt 0.305046 0.641410
vt 0.305045 0.839595
vt 0.188555 0.801745
vt 0.116561 0.259497
vt 0.305046 0.198255
vt 0.188555 0.358590
vt 0.000070 0.740502
vt 0.305045 0.962080
vt 0.116560 0.900837
vt 0.377040 0.542318
vt 0.116561 0.061313
vt 0.000071 0.221648
vt 0.188556 0.037920
vt 0.305046 0.000070
vt 0.377041 0.099163
vt 0.000070 0.419832
vt 0.116560 0.580167
vt 0.493531 0.778352
vt 0.493531 0.259498
vt 0.188556 0.160405
vt 0.377041 0.419832
vt 0.072065 0.839595
vt 0.072065 0.641410
vt 0.188555 0.999930
vt 0.493531 0.580167
vt 0.493531 0.702653
vt 0.000071 0.099163
vt 0.116561 0.457682
vt 0.000070 0.297347
vn -0.8507 -0.0000 -0.5257
vn 0.5257 -0.8507 -0.0000
vn 0.8507 -0.0000 -0.5257
vn -0.5257 -0.8507 0.0000
vn 0.5257 0.8507 0.0000
vn -0.0000 0.5257 -0.8507
vn -0.8507 0.0000 0.5257
vn 0.0000 -0.5257 0.8507
vn 0.0000 -0.5257 -0.8507
vn 0.0000 0.5257 0.8507
vn 0.8507 0.0000 0.5257
vn -0.5257 0.8507 0.0000
usemtl None
s off
f 16/1/1 5/2/1 10/3/1
f 19/4/2 14/5/2 4/6/2
f 14/7/3 9/8/3 1/9/3
f 6/10/4 20/11/4 8/12/4
f 18/13/5 13/14/5 1/9/5
f 10/3/6 17/15/6 1/9/6
f 7/16/7 16/1/7 8/12/7
f 4/17/8 12/18/8 8/12/8
f 19/4/9 6/10/9 10/19/9
f 11/20/10 18/13/10 7/21/10
f 11/22/11 4/23/11 14/24/11
f 15/25/12 18/13/12 17/15/12
f 10/3/1 6/10/1 16/1/1
f 16/1/1 15/26/1 5/2/1
f 4/6/2 20/11/2 19/4/2
f 19/4/2 2/27/2 14/5/2
f 1/9/3 13/14/3 14/7/3
f 14/7/3 2/28/3 9/8/3
f 8/12/4 16/1/4 6/10/4
f 6/10/4 19/4/4 20/11/4
f 1/9/5 17/15/5 18/13/5
f 18/13/5 3/29/5 13/14/5
f 1/9/6 9/30/6 10/3/6
f 10/3/6 5/2/6 17/15/6
f 8/12/7 12/31/7 7/16/7
f 7/16/7 15/32/7 16/1/7
f 8/12/8 20/11/8 4/17/8
f 4/17/8 11/33/8 12/18/8
f 9/34/9 2/35/9 10/19/9
f 2/35/9 19/4/9 10/19/9
f 7/21/10 12/36/10 11/20/10
f 11/20/10 3/29/10 18/13/10
f 13/14/11 3/29/11 14/24/11
f 3/29/11 11/22/11 14/24/11
f 17/15/12 5/37/12 15/25/12
f 15/25/12 7/38/12 18/13/12
