# Blender v2.92.0 OBJ File: ''
# www.blender.org
mtllib d20.mtl
o d20_Solid.004
v 0.850651 0.000000 -0.525731
v -0.850651 0.000000 -0.525731
v 0.850651 0.000000 0.525731
v -0.850651 0.000000 0.525731
v 0.525731 0.850651 0.000000
v 0.525731 -0.850651 0.000000
v -0.525731 0.850651 0.000000
v -0.525731 -0.850651 0.000000
v 0.000000 0.525731 -0.850651
v 0.000000 0.525731 0.850651
v 0.000000 -0.525731 -0.850651
v 0.000000 -0.525731 0.850651
vt 0.314944 0.272759
vt 0.157506 0.363655
vt 0.157506 0.181862
vt 0.472381 0.363655
vt 0.314944 0.454552
vt 0.314944 0.090965
vt 0.157506 0.000069
vt 0.314944 0.999931
vt 0.314944 0.818138
vt 0.472381 0.909035
vt 0.157506 0.545448
vt 0.000069 0.454552
vt 0.314944 0.636345
vt 0.157506 0.727242
vt 0.157506 0.909035
vt 0.000069 0.818138
vt 0.472381 0.181862
vt 0.000069 0.636345
vt 0.000069 0.272759
vt 0.000069 0.090965
vt 0.472381 0.545448
vt 0.472381 0.727242
vn 0.5774 0.5774 -0.5774
vn 0.5774 -0.5774 -0.5774
vn 0.5774 0.5774 0.5774
vn 0.5774 -0.5774 0.5774
vn -0.5774 0.5774 -0.5774
vn -0.5774 -0.5774 -0.5774
vn -0.5774 0.5774 0.5774
vn -0.5774 -0.5774 0.5774
vn 0.3568 0.0000 -0.9342
vn -0.3568 0.0000 -0.9342
vn 0.3568 0.0000 0.9342
vn -0.3568 0.0000 0.9342
vn 0.9342 0.3568 0.0000
vn 0.9342 -0.3568 0.0000
vn -0.9342 0.3568 0.0000
vn -0.9342 -0.3568 0.0000
vn 0.0000 0.9342 -0.3568
vn 0.0000 0.9342 0.3568
vn 0.0000 -0.9342 -0.3568
vn 0.0000 -0.9342 0.3568
usemtl None
s off
f 1/1/1 9/2/1 5/3/1
f 1/1/2 6/4/2 11/5/2
f 3/6/3 5/3/3 10/7/3
f 3/8/4 12/9/4 6/10/4
f 2/11/5 7/12/5 9/2/5
f 2/11/6 11/5/6 8/13/6
f 4/14/7 10/15/7 7/16/7
f 4/14/8 8/13/8 12/9/8
f 1/1/9 11/5/9 9/2/9
f 2/11/10 9/2/10 11/5/10
f 3/8/11 10/15/11 12/9/11
f 4/14/12 12/9/12 10/15/12
f 5/3/13 3/6/13 1/1/13
f 6/17/14 1/1/14 3/6/14
f 7/18/15 2/11/15 4/14/15
f 8/13/16 4/14/16 2/11/16
f 9/2/17 7/19/17 5/3/17
f 10/7/18 5/3/18 7/20/18
f 11/5/19 6/21/19 8/13/19
f 12/9/20 8/13/20 6/22/20
