# Blender v2.92.0 OBJ File: ''
# www.blender.org
mtllib d8.mtl
o d8_Solid.002
v 1.000000 0.000000 0.000000
v -1.000000 0.000000 0.000000
v 0.000000 0.000000 -1.000000
v 0.000000 0.000000 1.000000
v 0.000000 1.000000 0.000000
v 0.000000 -1.000000 0.000000
vt 0.433022 0.500000
vt 0.288703 0.749967
vt 0.144384 0.500000
vt 0.288703 0.250033
vt 0.433022 0.000066
vt 0.144384 0.000066
vt 0.433022 0.999934
vt 0.144384 0.999934
vt 0.000066 0.749967
vt 0.000066 0.250033
vn 0.5774 0.5774 -0.5774
vn -0.5774 0.5774 -0.5774
vn -0.5774 0.5774 0.5774
vn 0.5774 0.5774 0.5774
vn 0.5774 -0.5774 -0.5774
vn -0.5774 -0.5774 -0.5774
vn -0.5774 -0.5774 0.5774
vn 0.5774 -0.5774 0.5774
usemtl None
s off
f 5/1/1 1/2/1 3/3/1
f 5/1/2 3/3/2 2/4/2
f 5/5/3 2/4/3 4/6/3
f 5/7/4 4/8/4 1/2/4
f 6/9/5 3/3/5 1/2/5
f 6/10/6 2/4/6 3/3/6
f 6/10/7 4/6/7 2/4/7
f 6/9/8 1/2/8 4/8/8
